# File created by Blade
# Date/Time:  Tue Apr 07 20:18:06 2015
#---------------------------------------------------------
:version 1.10
:name HOM
:units
  mass 1.0
  length 1.000000
  angle deg
:documentation
     Acclaim Skeleton File
:root
   axis xyz
   order TX TY TZ RX RY RZ
   position 0.000000 0.000000 0.000000
   orientation 0 0 0
:bonedata
   begin
      id 1
      name Spine_dum
      direction 0.000000 1.000000 0.000000
      length 4.885285
      axis 0.0 0.0 0.0 xyz
   end
   begin
      id 2
      name LeftUpLeg_dum
      direction 1.000000 0.000000 0.000000
      length 2.672193
      axis 0.0 0.0 0.0 xyz
   end
   begin
      id 3
      name RightUpLeg_dum
      direction -1.000000 0.000000 0.000000
      length 2.672193
      axis 0.0 0.0 0.0 xyz
   end
   begin
      id 4
      name Spine
      direction 0.000000 1.000000 0.000000
      length 0.000000
      axis 0.0 0.0 0.0 xyz
      dof rx ry rz
   end
   begin
      id 5
      name Spine_dum1
      direction 0.000000 1.000000 0.000000
      length 16.494159
      axis 0.0 0.0 0.0 xyz
   end
   begin
      id 6
      name Spine_dum2
      direction 0.000000 1.000000 0.000000
      length 10.663448
      axis 0.0 0.0 0.0 xyz
   end
   begin
      id 7
      name Spine_dum3
      direction 0.000000 1.000000 0.000000
      length 10.663448
      axis 0.0 0.0 0.0 xyz
   end
   begin
      id 8
      name Head
      direction 0.000000 1.000000 0.000000
      length 4.527550
      axis 0.0 0.0 0.0 xyz
      dof rx ry rz
   end
   begin
      id 9
      name LeftShoulder
      direction 1.000000 0.000000 0.000000
      length 7.531907
      axis 0.0 0.0 -90.0 xyz
      dof rx ry rz
   end
   begin
      id 10
      name LeftArm
      direction 1.000000 0.000000 0.000000
      length 10.229199
      axis 0.0 0.0 -90.0 xyz
      dof rx ry rz
   end
   begin
      id 11
      name LeftForeArm
      direction 1.000000 0.000000 0.000000
      length 8.673495
      axis 0.0 0.0 -90.0 xyz
      dof ry rz rx
   end
   begin
      id 12
      name LeftHand
      direction 0.000000 0.000000 0.000000
      length 0.000000
      axis 0.0 0.0 -90.0 xyz
      dof rx ry rz
   end
   begin
      id 13
      name LeftHand_dum1
      direction 0.000000 0.000000 0.000000
      length 0.000000
      axis 0.0 0.0 -90.0 xyz
   end
   begin
      id 14
      name LeftHand_dum2
      direction 1.000000 0.000000 0.000000
      length 3.937000
      axis 0.0 0.0 -90.0 xyz
   end
   begin
      id 15
      name LeftHandThumb1
      direction 0.000000 0.000000 1.000000
      length 3.937000
      axis 0.0 0.0 -90.0 xyz
      dof rx rz ry
   end
   begin
      id 16
      name RightShoulder
      direction -1.000000 0.000000 0.000000
      length 7.531907
      axis 0.0 0.0 90.0 xyz
      dof rx ry rz
   end
   begin
      id 17
      name RightArm
      direction -1.000000 0.000000 0.000000
      length 10.229199
      axis 0.0 0.0 90.0 xyz
      dof rx ry rz
   end
   begin
      id 18
      name RightForeArm
      direction -1.000000 0.000000 0.000000
      length 8.673495
      axis 0.0 0.0 90.0 xyz
      dof ry rz rx
   end
   begin
      id 19
      name RightHand
      direction 0.000000 0.000000 0.000000
      length 0.000000
      axis 0.0 0.0 90.0 xyz
      dof rx ry rz
   end
   begin
      id 20
      name RightHand_dum1
      direction 0.000000 0.000000 0.000000
      length 0.000000
      axis 0.0 0.0 90.0 xyz
   end
   begin
      id 21
      name RightHand_dum2
      direction -1.000000 0.000000 0.000000
      length 3.937000
      axis 0.0 0.0 90.0 xyz
   end
   begin
      id 22
      name RightHandThumb1
      direction 0.000000 0.000000 1.000000
      length 3.937000
      axis 0.0 0.0 90.0 xyz
      dof rx rz ry
   end
   begin
      id 23
      name LeftUpLeg
      direction 0.000000 -1.000000 0.000000
      length 16.263388
      axis 0.0 0.0 0.0 xyz
      dof rx ry rz
   end
   begin
      id 24
      name LeftLeg
      direction 0.000000 -1.000000 0.000000
      length 14.328163
      axis 0.0 0.0 0.0 xyz
      dof rx ry rz
   end
   begin
      id 25
      name LeftFoot
      direction 0.000000 -0.258819 0.965926
      length 5.031290
      axis 15.0 0.0 0.0 xyz
      dof rx ry rz
   end
   begin
      id 26
      name LeftToeBase
      direction 0.000000 0.000000 1.000000
      length 2.952750
      axis 0.0 0.0 0.0 xyz
      dof rx ry rz
   end
   begin
      id 27
      name RightUpLeg
      direction 0.000000 -1.000000 0.000000
      length 16.263388
      axis 0.0 0.0 0.0 xyz
      dof rx ry rz
   end
   begin
      id 28
      name RightLeg
      direction 0.000000 -1.000000 0.000000
      length 14.328163
      axis 0.0 0.0 0.0 xyz
      dof rx ry rz
   end
   begin
      id 29
      name RightFoot
      direction 0.000000 -0.258819 0.965926
      length 5.031290
      axis 15.0 0.0 0.0 xyz
      dof rx ry rz
   end
   begin
      id 30
      name RightToeBase
      direction 0.000000 0.000000 1.000000
      length 2.952750
      axis 0.0 0.0 0.0 xyz
      dof rx ry rz
   end
:hierarchy
   begin
      root Spine_dum LeftUpLeg_dum RightUpLeg_dum
      Spine_dum Spine
      LeftUpLeg_dum LeftUpLeg
      RightUpLeg_dum RightUpLeg
      Spine Spine_dum1 Spine_dum2 Spine_dum3
      Spine_dum1 Head
      Spine_dum2 LeftShoulder
      Spine_dum3 RightShoulder
      LeftShoulder LeftArm
      LeftArm LeftForeArm
      LeftForeArm LeftHand
      LeftHand LeftHand_dum1 LeftHand_dum2
      LeftHand_dum1 LeftHandThumb1
      RightShoulder RightArm
      RightArm RightForeArm
      RightForeArm RightHand
      RightHand RightHand_dum1 RightHand_dum2
      RightHand_dum1 RightHandThumb1
      LeftUpLeg LeftLeg
      LeftLeg LeftFoot
      LeftFoot LeftToeBase
      RightUpLeg RightLeg
      RightLeg RightFoot
      RightFoot RightToeBase
   end

# File created by Blade
# Date/Time:  Tue Apr 07 20:17:56 2015
# Frame Rate: 120.000 fps
#------------------------------------------------------
:FULLY-SPECIFIED
:DEGREES
359
root 5.051697 33.038053 -9.765391 9.029128 -13.730340 -15.323325
Spine 0.209409 10.703870 7.513686
Head 3.595788 -4.736941 9.924752
LeftShoulder -18.260235 44.820495 12.530131
LeftArm 51.309845 -17.174236 -82.950459
LeftForeArm -1.447104 0.000000 17.322060
LeftHand 7.848737 -0.000000 -0.828945
LeftHandThumb1 -26.253704 0.000000 33.147579
RightShoulder 1.978249 5.073736 -14.285215
RightArm 29.884747 -15.610476 88.087550
RightForeArm 6.524719 -0.000000 11.586454
RightHand 5.607140 -0.000000 0.063275
RightHandThumb1 -24.326973 -0.000000 -32.862282
LeftUpLeg -9.593726 3.356952 7.995866
LeftLeg 9.297785 -0.000000 -0.000000
LeftFoot -10.114505 22.479257 -2.849832
LeftToeBase -9.867456 -0.000000 0.000000
RightUpLeg -90.502107 -32.524738 11.475499
RightLeg 108.963289 -0.000000 -0.000000
RightFoot 31.949314 -6.473646 3.383063
RightToeBase 32.699435 -0.000000 -0.000000
360
root 5.051039 33.053946 -9.792887 8.949786 -13.940636 -15.628719
Spine 0.651870 10.998173 7.927928
Head 3.165990 -4.702021 9.745870
LeftShoulder -18.274960 44.751683 12.492488
LeftArm 51.338791 -17.940007 -82.859862
LeftForeArm -1.647296 -0.000000 17.335178
LeftHand 7.933451 -0.000000 -0.497008
LeftHandThumb1 -26.253704 0.000000 33.147579
RightShoulder 2.168797 5.230064 -14.358785
RightArm 30.242223 -16.283341 87.645843
RightForeArm 8.796929 -0.000000 10.908053
RightHand 6.504730 -0.000000 -0.567733
RightHandThumb1 -24.326973 -0.000000 -32.862282
LeftUpLeg -9.472804 3.533473 8.285968
LeftLeg 9.376128 -0.000000 -0.000000
LeftFoot -10.103849 22.545972 -2.868314
LeftToeBase -9.816908 -0.000000 0.000000
RightUpLeg -91.529943 -32.654121 11.742055
RightLeg 109.591278 -0.000000 -0.000000
RightFoot 32.212274 -6.730303 3.372407
RightToeBase 32.518431 -0.000000 -0.000000
361
root 5.056296 33.067812 -9.830115 8.932960 -14.221847 -15.873523
Spine 1.052849 11.350686 8.244254
Head 2.689913 -4.641790 9.605333
LeftShoulder -18.269580 44.620819 12.540069
LeftArm 51.276956 -18.648530 -82.754161
LeftForeArm -1.904453 -0.000000 17.370021
LeftHand 7.924705 0.000000 -0.457260
LeftHandThumb1 -26.253704 0.000000 33.147579
RightShoulder 2.367641 5.492783 -14.394121
RightArm 30.407428 -16.568224 87.332680
RightForeArm 9.304923 -0.000000 10.491951
RightHand 6.586189 -0.000000 -0.835035
RightHandThumb1 -24.326973 -0.000000 -32.862282
LeftUpLeg -9.467387 3.800966 8.498471
LeftLeg 9.530879 -0.000000 -0.000000
LeftFoot -10.090278 22.557249 -2.901551
LeftToeBase -9.842977 -0.000000 0.000000
RightUpLeg -92.622766 -32.684137 11.932800
RightLeg 110.162549 -0.000000 -0.000000
RightFoot 32.518660 -6.710953 3.340206
RightToeBase 32.666086 -0.000000 -0.000000
362
root 5.056899 33.083105 -9.864008 8.864765 -14.450720 -16.181323
Spine 1.527702 11.621513 8.655815
Head 2.222114 -4.585514 9.431694
LeftShoulder -18.311980 44.538060 12.517942
LeftArm 51.292736 -19.395801 -82.705733
LeftForeArm -2.004078 -0.000000 17.362465
LeftHand 8.038831 0.000000 0.110201
LeftHandThumb1 -26.253704 0.000000 33.147579
RightShoulder 2.594237 5.717145 -14.447769
RightArm 30.557864 -16.295539 87.411821
RightForeArm 9.370505 -0.000000 9.917277
RightHand 6.742923 0.000000 -1.079689
RightHandThumb1 -24.326973 -0.000000 -32.862282
LeftUpLeg -9.390200 3.931376 8.789891
LeftLeg 9.668602 -0.000000 -0.000000
LeftFoot -10.070168 22.712612 -2.900510
LeftToeBase -9.787819 -0.000000 0.000000
RightUpLeg -93.629909 -32.776496 12.171118
RightLeg 110.702694 -0.000000 -0.000000
RightFoot 32.775473 -6.650139 3.225569
RightToeBase 32.665000 -0.000000 -0.000000
363
root 5.054700 33.098984 -9.893640 8.760792 -14.652305 -16.506455
Spine 2.029708 11.850410 9.088744
Head 1.796209 -4.511085 9.278707
LeftShoulder -18.388061 44.507760 12.507406
LeftArm 51.673374 -20.404113 -83.179920
LeftForeArm -1.680962 0.000000 17.039741
LeftHand 8.313480 0.000000 -0.071733
LeftHandThumb1 -26.253704 0.000000 33.147579
RightShoulder 2.843925 5.937623 -14.443561
RightArm 30.630555 -15.933891 87.461407
RightForeArm 9.096733 -0.000000 9.614274
RightHand 6.435298 -0.000000 -0.948164
RightHandThumb1 -24.326973 -0.000000 -32.862282
LeftUpLeg -9.271882 4.089715 9.107636
LeftLeg 9.816925 -0.000000 -0.000000
LeftFoot -10.068679 22.795716 -2.896656
LeftToeBase -9.786264 -0.000000 0.000000
RightUpLeg -94.553694 -32.878292 12.374502
RightLeg 111.210863 -0.000000 -0.000000
RightFoot 33.034468 -6.522461 3.106750
RightToeBase 32.830261 -0.000000 -0.000000
364
root 5.050822 33.114132 -9.925178 8.662961 -14.877318 -16.827511
Spine 2.532373 12.058000 9.514471
Head 1.390147 -4.412757 9.101756
LeftShoulder -18.471469 44.502314 12.474493
LeftArm 51.760160 -21.135876 -83.183825
LeftForeArm -1.891131 -0.000000 17.004494
LeftHand 8.337693 -0.000000 0.266325
LeftHandThumb1 -26.253704 0.000000 33.147579
RightShoulder 3.100487 6.147604 -14.438460
RightArm 30.747171 -15.777430 87.400718
RightForeArm 9.164233 -0.000000 9.316319
RightHand 6.414959 -0.000000 -0.975053
RightHandThumb1 -24.326973 -0.000000 -32.862282
LeftUpLeg -9.166187 4.265258 9.426454
LeftLeg 9.985785 -0.000000 -0.000000
LeftFoot -10.089267 22.857658 -2.945833
LeftToeBase -9.896541 -0.000000 0.000000
RightUpLeg -95.482219 -32.948636 12.594302
RightLeg 111.665428 -0.000000 -0.000000
RightFoot 33.304450 -6.472365 3.070615
RightToeBase 33.148705 -0.000000 -0.000000
365
root 5.048587 33.129518 -9.956657 8.585574 -15.100140 -17.167219
Spine 3.023167 12.286007 9.963558
Head 0.995825 -4.326114 8.923050
LeftShoulder -18.500001 44.426616 12.503081
LeftArm 51.714988 -21.802425 -83.125710
LeftForeArm -2.049369 -0.000000 17.029915
LeftHand 8.377615 -0.000000 0.543244
LeftHandThumb1 -26.253704 0.000000 33.147579
RightShoulder 3.309793 6.346211 -14.440616
RightArm 30.835692 -15.577245 87.354278
RightForeArm 9.043633 0.000000 9.049207
RightHand 6.349253 -0.000000 -0.788245
RightHandThumb1 -24.326973 -0.000000 -32.862282
LeftUpLeg -9.082664 4.442122 9.754086
LeftLeg 10.172473 -0.000000 -0.000000
LeftFoot -10.104637 22.948413 -2.936372
LeftToeBase -9.860925 -0.000000 0.000000
RightUpLeg -96.401993 -33.014980 12.836372
RightLeg 112.052310 -0.000000 -0.000000
RightFoot 33.601572 -6.435711 3.000683
RightToeBase 32.981481 -0.000000 -0.000000
366
root 5.042070 33.146410 -9.984148 8.505114 -15.321256 -17.543488
Spine 3.507256 12.495043 10.431835
Head 0.641076 -4.229021 8.804438
LeftShoulder -18.578917 44.407704 12.512141
LeftArm 51.733006 -22.425406 -83.084939
LeftForeArm -2.290250 0.000000 17.017772
LeftHand 8.403374 -0.000000 0.960578
LeftHandThumb1 -26.253704 0.000000 33.147579
RightShoulder 3.510856 6.514448 -14.366905
RightArm 30.948975 -15.456789 87.216310
RightForeArm 9.018614 -0.000000 8.843444
RightHand 6.132830 -0.000000 -0.897795
RightHandThumb1 -24.326973 -0.000000 -32.862282
LeftUpLeg -8.969410 4.621023 10.123786
LeftLeg 10.346484 -0.000000 -0.000000
LeftFoot -10.102471 23.047923 -2.892777
LeftToeBase -9.851439 -0.000000 0.000000
RightUpLeg -97.253794 -33.064934 13.088888
RightLeg 112.404848 -0.000000 -0.000000
RightFoot 33.797631 -6.455953 3.021516
RightToeBase 32.933424 -0.000000 -0.000000
367
root 5.030833 33.164216 -10.027554 8.641151 -15.557890 -18.058297
Spine 3.808586 12.752463 11.003142
Head 0.328941 -4.140640 8.649987
LeftShoulder -18.658624 44.431256 12.519623
LeftArm 51.766009 -23.055385 -83.079870
LeftForeArm -2.433048 -0.000000 17.015657
LeftHand 8.397825 -0.000000 0.897374
LeftHandThumb1 -26.253704 0.000000 33.147579
RightShoulder 3.689914 6.686441 -14.326724
RightArm 31.019102 -15.324393 87.125055
RightForeArm 9.060720 -0.000000 8.687701
RightHand 5.984600 -0.000000 -0.554730
RightHandThumb1 -24.326973 -0.000000 -32.862282
LeftUpLeg -9.070045 4.878957 10.626134
LeftLeg 10.578298 -0.000000 -0.000000
LeftFoot -10.157166 23.116563 -2.846537
LeftToeBase -9.699609 -0.000000 0.000000
RightUpLeg -98.272744 -32.970530 13.586730
RightLeg 112.672263 -0.000000 -0.000000
RightFoot 33.963252 -6.501246 3.101691
RightToeBase 33.091626 -0.000000 -0.000000
